<svg id="visual" viewBox="0 0 900 600" width="900" height="600" xmlns="http://www.w3.org/2000/svg" xmlns:xlink="http://www.w3.org/1999/xlink" version="1.1"><rect x="0" y="0" width="900" height="600" fill="#3b0505"></rect><path d="M0 341L129 406L257 446L386 351L514 391L643 368L771 330L900 448L900 601L771 601L643 601L514 601L386 601L257 601L129 601L0 601Z" fill="#948b83"></path><path d="M0 505L129 480L257 488L386 441L514 523L643 441L771 508L900 446L900 601L771 601L643 601L514 601L386 601L257 601L129 601L0 601Z" fill="#8f2917"></path></svg>